<?xml version="1.0" encoding="utf-8"?>
<!-- Generator: Adobe Illustrator 21.0.2, SVG Export Plug-In . SVG Version: 6.00 Build 0)  -->
<svg version="1.1" id="Слой_1" xmlns="http://www.w3.org/2000/svg" xmlns:xlink="http://www.w3.org/1999/xlink" x="0px" y="0px"
	 viewBox="0 0 489.3500061 199.904007" style="enable-background:new 0 0 489.3500061 199.904007;" xml:space="preserve">
<style type="text/css">
	.st0{fill:#201F21;}
	.st1{fill:#7204A5;}
</style>
<g>
	<g>
		<g>
			<path class="st0" d="M0.0001953,188.9245148V140.888382h9.7441406l22.5087891,29.5761719V140.888382h10.4306641v48.0361328
				h-8.9902344l-23.2626953-30.5371094v30.5371094H0.0001953z"/>
			<path class="st0" d="M71.916214,189.747757c-5.5820312,0-10.1796913-1.7724609-13.7929726-5.3183594
				c-3.6152344-3.5449219-5.421875-8.1542969-5.421875-13.8271484c0-5.3525391,1.7158203-9.8818359,5.1474609-13.5878906
				c3.4306641-3.7050781,7.776371-5.5585938,13.0380898-5.5585938c5.8095703,0,10.2470703,1.921875,13.3125,5.7646484
				c3.0644531,3.8427734,4.5986328,8.578125,4.5986328,14.2050781c0,0.5488281-0.046875,1.4648438-0.1376953,2.7451172H63.0636711
				c0.5029297,2.3330078,1.5322304,4.1171875,3.0878944,5.3525391c1.5546875,1.2353516,3.5224609,1.8525391,5.9023438,1.8525391
				c3.2470703,0,6.2207031-1.2578125,8.9208984-3.7744141l5.9697266,5.2841797
				C83.2394562,187.4606476,78.2296906,189.747757,71.916214,189.747757z M62.9269524,167.6510773h15.7148476
				c-0.3212891-2.3779297-1.15625-4.2773438-2.5048828-5.6953125c-1.3505859-1.4179688-3.1005859-2.1279297-5.25-2.1279297
				c-2.1044922,0-3.8544922,0.6982422-5.25,2.09375S63.3380852,165.2272491,62.9269524,167.6510773z"/>
			<path class="st0" d="M110.3449249,189.5417023c-3.4306641,0-6.0732422-0.8339844-7.9257812-2.5039062
				s-2.7792969-4.5175781-2.7792969-8.5439453v-17.4306641h-4.3916016v-8.9208984h4.3916016v-9.4013672h10.4306641v9.4013672
				h8.6464844v8.9208984h-8.6464844v15.7148438c0,2.3798828,1.1210938,3.5683594,3.3623047,3.5683594
				c1.8300781,0,3.5449219-0.4335938,5.1474609-1.3037109v8.3720703
				C116.2003937,188.8336945,113.4562531,189.5417023,110.3449249,189.5417023z"/>
			<path class="st0" d="M127.7746124,199.904007v-47.7617188h10.4306641v5.2841797
				c2.9277344-3.9804688,6.7480469-5.9707031,11.4609375-5.9707031c4.5742188,0,8.5087891,1.7158203,11.8027344,5.1474609
				c3.2939453,3.4306641,4.9414062,8.0976562,4.9414062,13.9990234c0,5.8564453-1.6367188,10.4882812-4.9072266,13.8964844
				c-3.2714844,3.4082031-7.2167969,5.1123047-11.8369141,5.1123047c-4.5751953,0-8.3964844-1.8291016-11.4609375-5.4902344
				v15.7832031H127.7746124z M140.6417999,177.9108429c1.7158203,1.8984375,3.8310547,2.8476562,6.3476562,2.8476562
				c2.515625,0,4.6425781-0.9492188,6.3818359-2.8476562c1.7382812-1.8984375,2.6074219-4.3808594,2.6074219-7.4462891
				c0-2.9726562-0.8691406-5.4091797-2.6074219-7.3076172c-1.7392578-1.8984375-3.8662109-2.8486328-6.3818359-2.8486328
				c-2.5166016,0-4.6318359,0.9501953-6.3476562,2.8486328s-2.5732422,4.3808594-2.5732422,7.4453125
				C138.0685577,173.5768585,138.9259796,176.0124054,140.6417999,177.9108429z"/>
			<path class="st0" d="M192.8986359,189.747757c-5.5820312,0-10.1796875-1.7724609-13.7929688-5.3183594
				c-3.6152344-3.5449219-5.421875-8.1542969-5.421875-13.8271484c0-5.3525391,1.7158203-9.8818359,5.1474609-13.5878906
				c3.4306641-3.7050781,7.7763672-5.5585938,13.0380859-5.5585938c5.8095703,0,10.2470703,1.921875,13.3125,5.7646484
				c3.0644531,3.8427734,4.5986328,8.578125,4.5986328,14.2050781c0,0.5488281-0.046875,1.4648438-0.1376953,2.7451172h-25.5966797
				c0.5029297,2.3330078,1.5322266,4.1171875,3.0878906,5.3525391c1.5546875,1.2353516,3.5224609,1.8525391,5.9023438,1.8525391
				c3.2470703,0,6.2207031-1.2578125,8.9208984-3.7744141l5.9697266,5.2841797
				C204.2218781,187.4606476,199.2121124,189.747757,192.8986359,189.747757z M183.9093781,167.6510773h15.7148438
				c-0.3212891-2.3779297-1.15625-4.2773438-2.5048828-5.6953125c-1.3505859-1.4179688-3.1005859-2.1279297-5.25-2.1279297
				c-2.1044922,0-3.8544922,0.6982422-5.25,2.09375S184.3205109,165.2272491,183.9093781,167.6510773z"/>
			<path class="st0" d="M229.3361359,189.6110382c-3.6142578,0-6.6220703-1.0058594-9.0234375-3.0195312
				c-2.4023438-2.0126953-3.6025391-4.8037109-3.6025391-8.3720703c0-3.8876953,1.3378906-6.8164062,4.0146484-8.7841797
				c2.6757812-1.9658203,6.2783203-2.9501953,10.8076172-2.9501953c3.0644531,0,6.0615234,0.5039062,8.9902344,1.5097656v-0.6181641
				c0-4.4824219-2.6318359-6.7246094-7.8925781-6.7246094c-3.15625,0-6.5419922,0.6630859-10.15625,1.9892578l-2.6074219-7.9599609
				c4.4833984-1.9667969,9.2402344-2.9501953,14.2734375-2.9501953c5.5351562,0,9.6757812,1.3720703,12.4208984,4.1171875
				c2.6533203,2.6533203,3.9804688,6.5654297,3.9804688,11.734375v21.3417969h-10.0878906v-3.9804688
				C237.6623077,188.0563507,233.9572296,189.6110382,229.3361359,189.6110382z M232.4933624,182.4049835
				c2.4238281,0,4.3916016-0.6054688,5.9013672-1.8183594c1.5097656-1.2119141,2.2646484-2.7558594,2.2646484-4.6318359v-1.8525391
				c-1.9677734-0.9150391-4.1855469-1.3730469-6.65625-1.3730469c-2.2880859,0-4.0605469,0.4462891-5.3183594,1.3378906
				c-1.2587891,0.8925781-1.8876953,2.1855469-1.8876953,3.8779297c0,1.3720703,0.5253906,2.4599609,1.5791016,3.2597656
				C229.4279327,182.0055695,230.8000031,182.4049835,232.4933624,182.4049835z"/>
			<path class="st0" d="M260.9025269,188.9245148v-50.0947266h10.4306641v26.6943359l12.2158203-13.3818359h12.4892578
				l-13.9990234,14.4794922l14.4794922,22.3027344h-11.9404297l-9.6074219-15.0283203l-3.6376953,3.8427734v11.1855469H260.9025269z
				"/>
			<path class="st0" d="M321.0861206,189.6110382c-7.8691406,0-14.6630859-2.5615234-20.3808594-7.6865234l6.2441406-7.4794922
				c4.7119141,3.8886719,9.4931641,5.8330078,14.3427734,5.8330078c2.1494141,0,3.8427734-0.4121094,5.078125-1.2353516
				s1.8525391-1.9667969,1.8525391-3.4306641c0-1.3730469-0.640625-2.4814453-1.9208984-3.3291016
				c-1.2822266-0.8457031-3.8671875-1.7714844-7.7548828-2.7783203c-2.7451172-0.6865234-4.9648438-1.3613281-6.65625-2.0244141
				c-1.6933594-0.6630859-3.3056641-1.5449219-4.8378906-2.6425781c-1.5332031-1.0976562-2.6542969-2.4814453-3.3632812-4.1513672
				s-1.0634766-3.671875-1.0634766-6.0048828c0-4.3457031,1.5664062-7.8457031,4.7011719-10.4990234
				c3.1328125-2.6533203,7.1708984-3.9804688,12.1123047-3.9804688c6.8154297,0,12.7636719,2.0361328,17.8417969,6.1074219
				l-5.4902344,7.9609375c-4.5292969-3.1572266-8.6923828-4.7353516-12.4892578-4.7353516
				c-1.9677734,0-3.4892578,0.4013672-4.5634766,1.2011719c-1.0751953,0.8007812-1.6123047,1.8417969-1.6123047,3.1220703
				c0,1.5556641,0.6621094,2.7226562,1.9892578,3.5c1.3271484,0.7783203,4.1181641,1.7148438,8.3720703,2.8134766
				c5.2158203,1.3720703,9.0585938,3.1337891,11.5292969,5.2841797s3.7050781,5.2382812,3.7050781,9.2636719
				c0,4.6660156-1.6123047,8.3154297-4.8378906,10.9453125
				C330.6593628,188.2965851,326.3927612,189.6110382,321.0861206,189.6110382z"/>
			<path class="st0" d="M360.6124878,189.5417023c-3.4306641,0-6.0732422-0.8339844-7.9257812-2.5039062
				s-2.7792969-4.5175781-2.7792969-8.5439453v-17.4306641h-4.3916016v-8.9208984h4.3916016v-9.4013672h10.4306641v9.4013672
				h8.6464844v8.9208984h-8.6464844v15.7148438c0,2.3798828,1.1210938,3.5683594,3.3623047,3.5683594
				c1.8300781,0,3.5449219-0.4335938,5.1474609-1.3037109v8.3720703
				C366.4679565,188.8336945,363.7238159,189.5417023,360.6124878,189.5417023z"/>
			<path class="st0" d="M410.3312378,184.1891632c-3.8212891,3.7060547-8.5673828,5.5585938-14.2402344,5.5585938
				s-10.3955078-1.8408203-14.1699219-5.5244141c-3.7744141-3.6816406-5.6621094-8.2226562-5.6621094-13.6210938
				c0-5.3525391,1.9101562-9.8818359,5.7304688-13.5878906c3.8193359-3.7050781,8.5664062-5.5585938,14.2392578-5.5585938
				c5.671875,0,10.3964844,1.8427734,14.1708984,5.5244141c3.7744141,3.6835938,5.6611328,8.2246094,5.6611328,13.6220703
				C416.06073,175.9547882,414.1505737,180.4840851,410.3312378,184.1891632z M396.2286987,180.7584991
				c2.8818359,0,5.1914062-0.9716797,6.9306641-2.9169922c1.7382812-1.9433594,2.6083984-4.3574219,2.6083984-7.2392578
				c0-2.7900391-0.9042969-5.1816406-2.7109375-7.1708984c-1.8076172-1.9902344-4.1289062-2.9853516-6.9658203-2.9853516
				c-2.8818359,0-5.1923828,0.9726562-6.9306641,2.9160156c-1.7392578,1.9453125-2.6074219,4.3574219-2.6074219,7.2402344
				c0,2.7910156,0.9023438,5.1806641,2.7109375,7.1708984C391.0704956,179.763382,393.3917847,180.7584991,396.2286987,180.7584991z
				"/>
			<path class="st0" d="M424.9796753,188.9245148v-36.7822266h10.4306641v7.4111328
				c2.3789062-5.6269531,6.2900391-8.3251953,11.7353516-8.0976562v10.9111328h-0.5488281
				c-3.5693359,0-6.3251953,1.0878906-8.2695312,3.2597656c-1.9453125,2.1738281-2.9169922,5.4111328-2.9169922,9.7099609
				v13.5878906H424.9796753z"/>
			<path class="st0" d="M472.4679565,189.747757c-5.5820312,0-10.1796875-1.7724609-13.7929688-5.3183594
				c-3.6152344-3.5449219-5.421875-8.1542969-5.421875-13.8271484c0-5.3525391,1.7158203-9.8818359,5.1474609-13.5878906
				c3.4306641-3.7050781,7.7763672-5.5585938,13.0380859-5.5585938c5.8095703,0,10.2470703,1.921875,13.3125,5.7646484
				c3.0644531,3.8427734,4.5986328,8.578125,4.5986328,14.2050781c0,0.5488281-0.046875,1.4648438-0.1376953,2.7451172h-25.5966797
				c0.5029297,2.3330078,1.5322266,4.1171875,3.0878906,5.3525391c1.5546875,1.2353516,3.5224609,1.8525391,5.9023438,1.8525391
				c3.2470703,0,6.2207031-1.2578125,8.9208984-3.7744141l5.9697266,5.2841797
				C483.7911987,187.4606476,478.7814331,189.747757,472.4679565,189.747757z M463.4786987,167.6510773h15.7148438
				c-0.3212891-2.3779297-1.15625-4.2773438-2.5048828-5.6953125c-1.3505859-1.4179688-3.1005859-2.1279297-5.25-2.1279297
				c-2.1044922,0-3.8544922,0.6982422-5.25,2.09375S463.8898315,165.2272491,463.4786987,167.6510773z"/>
		</g>
	</g>
	<g>
		<rect x="0.2156494" class="st1" width="7.2446289" height="105.0260773"/>
		<rect x="22.4009514" class="st1" width="14.4893799" height="105.0260773"/>
		<rect x="410.6629028" class="st1" width="14.4893799" height="105.0260773"/>
		<rect x="480.6296997" class="st1" width="7.3197021" height="105.0260773"/>
		<rect x="49.1142082" class="st1" width="7.2446289" height="105.0260773"/>
		<rect x="77.6386261" class="st1" width="14.4892578" height="105.0260773"/>
		<rect x="145.8769073" class="st1" width="8.5544434" height="105.0260773"/>
		<rect x="168.7318878" class="st1" width="4.2773438" height="105.0260773"/>
		<rect x="435.87323" class="st1" width="8.5544434" height="105.0260773"/>
		<rect x="458.7282104" class="st1" width="4.2773438" height="105.0260773"/>
		<rect x="183.9687042" class="st1" width="8.5544434" height="105.0260773"/>
		<rect x="103.4462433" class="st1" width="31.1123047" height="105.0260773"/>
		<rect x="345.7880249" class="st1" width="8.5544434" height="105.0260773"/>
		<rect x="373.2015991" class="st1" width="8.5544434" height="105.0260773"/>
		<rect x="391.49823" class="st1" width="8.5544434" height="105.0260773"/>
		<rect x="305.1532593" class="st1" width="31.1123047" height="105.0260773"/>
		<rect x="204.105423" class="st1" width="80.9295654" height="105.0260773"/>
	</g>
</g>
</svg>
