<?xml version="1.0" encoding="utf-8"?>
<!-- Generator: Adobe Illustrator 21.0.2, SVG Export Plug-In . SVG Version: 6.00 Build 0)  -->
<svg version="1.1" id="Слой_1" xmlns="http://www.w3.org/2000/svg" xmlns:xlink="http://www.w3.org/1999/xlink" x="0px" y="0px"
	 viewBox="0 0 156.7575989 35" style="enable-background:new 0 0 156.7575989 35;" xml:space="preserve">
<style type="text/css">
	.st0{fill:#201F21;}
	.st1{fill:#7204A5;}
</style>
<g>
	<g>
		<path class="st0" d="M-0.0690487,31.4812946V16.0866871h3.1227999l7.2136116,9.4785633v-9.4785633h3.3428173v15.3946075
			h-2.8811884l-7.4552231-9.7865257v9.7865257H-0.0690487z"/>
		<path class="st0" d="M22.9785786,31.7451267c-1.7889271,0-3.2623825-0.568037-4.4203663-1.7044258
			c-1.1586094-1.136076-1.7376022-2.613287-1.7376022-4.4313221c0-1.7153797,0.5498867-3.1669273,1.6496582-4.3546429
			c1.0994587-1.1874027,2.4921684-1.7814178,4.178442-1.7814178c1.8618507,0,3.2839794,0.6159229,4.266386,1.8474541
			c0.9820957,1.2315311,1.4737701,2.749115,1.4737701,4.5524406c0,0.1758881-0.0150223,0.4694519-0.0441284,0.8797531h-8.2032185
			c0.1611786,0.7476826,0.4910469,1.3194752,0.9896069,1.7153816c0.4982452,0.3959045,1.1288776,0.5937004,1.8915806,0.5937004
			c1.0406208,0,1.9936104-0.4031029,2.8589687-1.2096233l1.9131756,1.6934738
			C26.6074486,31.0121555,25.0019207,31.7451267,22.9785786,31.7451267z M20.0977039,24.6635895h5.0362892
			c-0.1029663-0.7620792-0.370554-1.3708038-0.8027649-1.8252335c-0.4328346-0.4544296-0.9936733-0.6819572-1.682518-0.6819572
			c-0.674448,0-1.2352867,0.223772-1.682518,0.6710033C20.518959,23.2746334,20.2294636,23.8868008,20.0977039,24.6635895z"/>
		<path class="st0" d="M35.2942047,31.6790905c-1.0994606,0-1.9463539-0.2672749-2.5400543-0.8024502
			c-0.5937004-0.5351772-0.890707-1.4477921-0.890707-2.738163v-5.586174h-1.4074211v-2.8589668h1.4074211v-3.012949h3.3428173
			v3.012949h2.7710228v2.8589668h-2.7710228v5.0362892c0,0.7627048,0.3592873,1.1435871,1.077549,1.1435871
			c0.5865021,0,1.1360779-0.138958,1.6496582-0.4178123v2.6830788
			C37.1707611,31.4521885,36.2913208,31.6790905,35.2942047,31.6790905z"/>
		<path class="st0" d="M40.8800659,35V19.6933365h3.3428154v1.6934719c0.938282-1.2756596,2.1626129-1.9134903,3.6730003-1.9134903
			c1.4659424,0,2.7268944,0.5498867,3.7825356,1.6496582c1.055645,1.0994587,1.583622,2.5951347,1.583622,4.4864025
			c0,1.876873-0.5245361,3.3612823-1.5726662,4.4535427c-1.0484467,1.0922604-2.3128395,1.6383896-3.7934914,1.6383896
			c-1.466259,0-2.6909027-0.5861893-3.6730003-1.7595081V35H40.8800659z M45.0037384,27.9516354
			c0.5498848,0.6084118,1.2277756,0.9126167,2.0342941,0.9126167c0.8062096,0,1.487854-0.3042049,2.0452499-0.9126167
			c0.5570831-0.6084099,0.8356285-1.4039764,0.8356285-2.386385c0-0.9526749-0.2785454-1.733532-0.8356285-2.3419437
			c-0.5573959-0.6084099-1.2390404-0.9129276-2.0452499-0.9129276c-0.8065186,0-1.4844093,0.3045177-2.0342941,0.9129276
			c-0.5498848,0.6084118-0.8246727,1.4039783-0.8246727,2.3860722
			C44.1790657,26.5626812,44.4538536,27.3432255,45.0037384,27.9516354z"/>
		<path class="st0" d="M61.7509956,31.7451267c-1.7889252,0-3.2623825-0.568037-4.4203644-1.7044258
			c-1.1586113-1.136076-1.7376022-2.613287-1.7376022-4.4313221c0-1.7153797,0.5498848-3.1669273,1.6496582-4.3546429
			c1.0994568-1.1874027,2.4921684-1.7814178,4.1784401-1.7814178c1.8618507,0,3.2839813,0.6159229,4.2663879,1.8474541
			c0.9820938,1.2315311,1.4737701,2.749115,1.4737701,4.5524406c0,0.1758881-0.0150223,0.4694519-0.0441284,0.8797531h-8.2032204
			c0.1611786,0.7476826,0.4910469,1.3194752,0.9896088,1.7153816c0.4982452,0.3959045,1.1288757,0.5937004,1.8915825,0.5937004
			c1.0406189,0,1.9936066-0.4031029,2.858963-1.2096233l1.9131775,1.6934738
			C65.3798676,31.0121555,63.7743378,31.7451267,61.7509956,31.7451267z M58.870121,24.6635895h5.0362892
			c-0.1029663-0.7620792-0.3705521-1.3708038-0.8027611-1.8252335c-0.4328384-0.4544296-0.9936752-0.6819572-1.6825218-0.6819572
			c-0.6744461,0-1.2352867,0.223772-1.682518,0.6710033S59.0018806,23.8868008,58.870121,24.6635895z"/>
		<path class="st0" d="M73.4284821,31.7013111c-1.1583023,0-2.1222458-0.3223572-2.8918304-0.9676971
			c-0.7699051-0.6450291-1.154541-1.5394936-1.154541-2.6830807c0-1.2459278,0.4287643-2.1845188,1.2866135-2.8151512
			c0.8575287-0.6300049,2.0120697-0.9454784,3.463623-0.9454784c0.9820938,0,1.9425964,0.1614933,2.8811874,0.4838505v-0.1981106
			c0-1.4365253-0.8434525-2.1550999-2.5294113-2.1550999c-1.0115128,0-2.0965805,0.2125053-3.2548752,0.637516l-0.8356247-2.5510063
			c1.4368362-0.6303177,2.9613113-0.9454784,4.5743484-0.9454784c1.7739029,0,3.1008911,0.4397221,3.9806442,1.3194771
			c0.8503342,0.8503342,1.2756577,2.1040859,1.2756577,3.7606297v6.839613h-3.2329636v-1.2756596
			C76.0968475,31.2030659,74.9094467,31.7013111,73.4284821,31.7013111z M74.4403076,29.3919163
			c0.7767868,0,1.4074173-0.1940403,1.8912659-0.5827465c0.4838486-0.3883934,0.7257767-0.8831978,0.7257767-1.4844093v-0.5937023
			c-0.6306305-0.293251-1.3413849-0.440033-2.133194-0.440033c-0.733284,0-1.3013229,0.1430264-1.7044296,0.4287663
			c-0.4034119,0.2860527-0.6049652,0.7004242-0.6049652,1.2427979c0,0.4397221,0.1683731,0.7883682,0.506073,1.0446892
			C73.457901,29.2639122,73.8976212,29.3919163,74.4403076,29.3919163z"/>
		<path class="st0" d="M83.5448761,31.4812946V15.4269485h3.3428116v8.5549946l3.9149246-4.2886066h4.0025558l-4.4864044,4.6403828
			l4.6403809,7.1475754h-3.8266602l-3.0789871-4.8162727l-1.1658096,1.2315311v3.5847416H83.5448761z"/>
		<path class="st0" d="M102.8324966,31.7013111c-2.5218964,0-4.6992188-0.8209152-6.5316544-2.4633751l2.0011215-2.3970261
			c1.5100708,1.2462406,3.042366,1.8693619,4.5965729,1.8693619c0.6888428,0,1.2315292-0.1320724,1.6274338-0.3959045
			c0.3959045-0.263834,0.5937042-0.6303196,0.5937042-1.0994587c0-0.4400349-0.205307-0.7952538-0.6156158-1.0669098
			c-0.4109268-0.2710304-1.2393494-0.5677261-2.4852829-0.8903961c-0.8797531-0.2200165-1.5911255-0.4362774-2.1331863-0.6487827
			c-0.5426941-0.2125072-1.0594025-0.4951172-1.5504532-0.8468933c-0.4913559-0.3517761-0.850647-0.7952538-1.077858-1.3304291
			c-0.2272186-0.5351772-0.3408279-1.1767616-0.3408279-1.9244442c0-1.3927097,0.5020065-2.514389,1.5066299-3.3647251
			c1.0040054-0.8503342,2.2981339-1.2756586,3.881752-1.2756586c2.1842041,0,4.0904999,0.6525393,5.7179337,1.957305
			l-1.7595062,2.5513191c-1.4515533-1.0118275-2.7857361-1.5175838-4.0025558-1.5175838
			c-0.6306305,0-1.1182404,0.1286297-1.4625015,0.3849506c-0.3445816,0.2566338-0.5167084,0.5902596-0.5167084,1.0005608
			c0,0.498558,0.2121887,0.8725567,0.6375122,1.1216793c0.4253235,0.2494354,1.3197861,0.549572,2.6830826,0.9016628
			c1.6715622,0.4397202,2.9030914,1.0043144,3.6949081,1.6934719c0.7918091,0.6891575,1.1874008,1.6787624,1.1874008,2.9688187
			c0,1.4953651-0.516716,2.6649284-1.5504456,3.5077515C105.900528,31.280056,104.533165,31.7013111,102.8324966,31.7013111z"/>
		<path class="st0" d="M115.4999008,31.6790905c-1.0994644,0-1.9463501-0.2672749-2.5400543-0.8024502
			c-0.5937042-0.5351772-0.8907089-1.4477921-0.8907089-2.738163v-5.586174h-1.4074173v-2.8589668h1.4074173v-3.012949h3.3428192
			v3.012949h2.771019v2.8589668h-2.771019v5.0362892c0,0.7627048,0.3592834,1.1435871,1.0775452,1.1435871
			c0.5865021,0,1.1360779-0.138958,1.6496582-0.4178123v2.6830788
			C117.3764572,31.4521885,116.4970169,31.6790905,115.4999008,31.6790905z"/>
		<path class="st0" d="M131.4337463,29.9637108c-1.2246399,1.1877155-2.7456665,1.7814159-4.5637054,1.7814159
			c-1.8180313,0-3.331543-0.5899448-4.5411682-1.770462c-1.2096252-1.1798916-1.8145905-2.6351948-1.8145905-4.3652859
			c0-1.7153797,0.6121674-3.1669273,1.8364944-4.3546429c1.2240219-1.1874027,2.7453613-1.7814178,4.5634003-1.7814178
			c1.8177109,0,3.3318558,0.5905724,4.541481,1.7704639c1.2096252,1.1805172,1.8142853,2.6358204,1.8142853,4.3655968
			C133.2699432,27.3247604,132.6577759,28.7763081,131.4337463,29.9637108z M126.9141769,28.8642521
			c0.9235687,0,1.6637344-0.3114033,2.221138-0.9348373c0.5570831-0.6228065,0.8359375-1.3964653,0.8359375-2.3200359
			c0-0.8941498-0.2898102-1.6606102-0.8688049-2.2981262c-0.5792999-0.6378307-1.3232269-0.9567451-2.2324066-0.9567451
			c-0.9235687,0-1.6640472,0.3117161-2.2211304,0.9345226c-0.5574036,0.6234341-0.8356323,1.3964672-0.8356323,2.3203487
			c0,0.8944645,0.2891846,1.6602993,0.8688049,2.2981281C125.2610703,28.5453377,126.0049973,28.8642521,126.9141769,28.8642521z"/>
		<path class="st0" d="M136.1282806,31.4812946V19.6933365h3.3428192v2.3751163
			c0.7623901-1.8033237,2.0158234-2.6680565,3.7609406-2.5951347v3.4967976h-0.1758881
			c-1.1439056,0-2.0270996,0.3486481-2.6502228,1.0446892c-0.6234283,0.6966686-0.9348297,1.7341595-0.9348297,3.1118469v4.3546429
			H136.1282806z"/>
		<path class="st0" d="M151.3473053,31.7451267c-1.7889252,0-3.2623749-0.568037-4.4203644-1.7044258
			c-1.1585999-1.136076-1.7375946-2.613287-1.7375946-4.4313221c0-1.7153797,0.549881-3.1669273,1.6496582-4.3546429
			c1.0994568-1.1874027,2.4921722-1.7814178,4.1784363-1.7814178c1.8618469,0,3.2839813,0.6159229,4.2663879,1.8474541
			c0.9821014,1.2315311,1.4737701,2.749115,1.4737701,4.5524406c0,0.1758881-0.0150146,0.4694519-0.0441284,0.8797531h-8.2032166
			c0.1611786,0.7476826,0.4910431,1.3194752,0.9896088,1.7153816c0.4982452,0.3959045,1.1288757,0.5937004,1.891571,0.5937004
			c1.0406342,0,1.9936218-0.4031029,2.8589783-1.2096233l1.9131775,1.6934738
			C154.976181,31.0121555,153.3706512,31.7451267,151.3473053,31.7451267z M148.4664307,24.6635895h5.0363007
			c-0.1029663-0.7620792-0.3705597-1.3708038-0.8027649-1.8252335c-0.4328461-0.4544296-0.9936829-0.6819572-1.6825256-0.6819572
			c-0.6744385,0-1.2352905,0.223772-1.6825104,0.6710033C148.8876953,23.2746334,148.5981903,23.8868008,148.4664307,24.6635895z"/>
	</g>
</g>
<rect class="st1" width="2.3217571" height="8.1188211"/>
<rect x="7.1099405" class="st1" width="4.6435533" height="8.1188211"/>
<rect x="131.5400391" class="st1" width="4.6435533" height="8.1188211"/>
<rect x="153.9629822" class="st1" width="2.3458164" height="8.1188211"/>
<rect x="15.6709986" class="st1" width="2.3217571" height="8.1188211"/>
<rect x="24.8124962" class="st1" width="4.6435142" height="8.1188211"/>
<rect x="46.6814842" class="st1" width="2.7415259" height="8.1188211"/>
<rect x="54.0060425" class="st1" width="1.3708022" height="8.1188211"/>
<rect x="139.6194458" class="st1" width="2.7415259" height="8.1188211"/>
<rect x="146.9440002" class="st1" width="1.3708022" height="8.1188211"/>
<rect x="58.8891335" class="st1" width="2.7415259" height="8.1188211"/>
<rect x="33.0833168" class="st1" width="9.9708643" height="8.1188211"/>
<rect x="110.7489548" class="st1" width="2.7415259" height="8.1188211"/>
<rect x="119.5344543" class="st1" width="2.7415259" height="8.1188211"/>
<rect x="125.3981552" class="st1" width="2.7415259" height="8.1188211"/>
<rect x="97.7263412" class="st1" width="9.9708643" height="8.1188211"/>
<rect x="65.3425446" class="st1" width="25.9362888" height="8.1188211"/>
</svg>
