<?xml version="1.0" encoding="utf-8"?>
<!-- Generator: Adobe Illustrator 21.0.2, SVG Export Plug-In . SVG Version: 6.00 Build 0)  -->
<svg version="1.1" id="Слой_1" xmlns="http://www.w3.org/2000/svg" xmlns:xlink="http://www.w3.org/1999/xlink" x="0px" y="0px"
	 viewBox="0 0 200 200" style="enable-background:new 0 0 200 200;" xml:space="preserve">
<style type="text/css">
	.st0{fill:#7204A5;}
	.st1{fill:#201F21;}
	.st2{fill:#FFFFFF;}
	.st3{fill:#FFFFFF;stroke:#7204A5;stroke-miterlimit:10;}
</style>
<rect class="st0" width="200" height="200"/>
<g>
	<path class="st2" d="M39.0957031,132.8959961V67.1049805h13.3476562l30.828125,40.5087891V67.1049805h14.2851562v65.7910156
		h-12.3125L53.3828125,91.0717773v41.8242188H39.0957031z"/>
	<path class="st2" d="M136.75,133.8354492c-10.7773438,0-20.0820312-3.5078125-27.9140625-10.5263672l8.5527344-10.2441406
		c6.453125,5.3261719,13,7.9882812,19.6425781,7.9882812c2.9453125,0,5.2636719-0.5634766,6.9550781-1.6914062
		s2.5371094-2.6933594,2.5371094-4.6992188c0-1.8798828-0.8769531-3.3984375-2.6308594-4.5585938
		c-1.7558594-1.1591797-5.2949219-2.4277344-10.6210938-3.8066406c-3.7597656-0.9394531-6.7988281-1.8632812-9.1171875-2.7724609
		c-2.3183594-0.9072266-4.5273438-2.1152344-6.625-3.6181641c-2.0996094-1.5039062-3.6347656-3.3984375-4.6054688-5.6865234
		c-0.9726562-2.2871094-1.4570312-5.0283203-1.4570312-8.2236328c0-5.9521484,2.1464844-10.7460938,6.4375-14.3808594
		c4.2910156-3.6328125,9.8222656-5.4511719,16.5898438-5.4511719c9.3359375,0,17.4804688,2.7890625,24.4355469,8.3652344
		l-7.5175781,10.9023438c-6.203125-4.3232422-11.90625-6.4853516-17.1054688-6.4853516
		c-2.6953125,0-4.7792969,0.5498047-6.25,1.6455078c-1.4746094,1.0966797-2.2089844,2.5224609-2.2089844,4.2763672
		c0,2.1308594,0.90625,3.7285156,2.7246094,4.7929688c1.8164062,1.0664062,5.6386719,2.3496094,11.4667969,3.8535156
		c7.1425781,1.8798828,12.40625,4.2929688,15.7890625,7.2373047c3.3847656,2.9453125,5.0761719,7.1748047,5.0761719,12.6884766
		c0,6.390625-2.2089844,11.3886719-6.6269531,14.9902344C149.8613281,132.0356445,144.0175781,133.8354492,136.75,133.8354492z"/>
</g>
</svg>
